<svg xmlns="http://www.w3.org/2000/svg" width="24" height="24" viewBox="0 0 24 24">
  <path d="M12 2c5.514 0 10 4.486 10 10s-4.486 10-10 10-10-4.486-10-10 4.486-10 10-10zm0-2c-6.627 0-12 5.373-12 12s5.373 12 12 12 12-5.373 12-12-5.373-12-12-12zM8.8817842e-16,0 L17.9893812,15.165422 C17.8373812,14.1939565 16.0523812,14.9419346 15.9413812,13.8778528 C15.7843812,12.3688095 18.0163812,9.11716873 17.8393812,7.8517469 C17.6823812,6.71719607 16.9193812,6.47760148 16.2573812,6.46451438 C15.6153812,6.45444738 15.4453812,6.55612407 15.2283812,6.68397497 C15.1013812,6.75746406 14.9223812,6.90343555 14.6723812,6.66384097 C14.5053812,6.50377568 14.3943812,6.39404538 14.2203812,6.25210069 C14.1293812,6.180625 13.9873812,6.0890153 13.7473812,6.0537808 C13.5093812,6.0185463 13.1983812,6.0537808 13.0013812,6.1373369 C12.8043812,6.22391309 12.6503812,6.37189798 12.4883812,6.51384268 C12.3263812,6.65578737 11.9143812,7.11685594 11.5323812,6.94672365 C11.3653812,6.87323456 10.8033812,6.59135857 10.3963812,6.41619278 C9.61538118,6.0759282 8.48538118,6.62759977 8.07838118,7.35544383 C7.47138118,8.43764627 6.27838118,12.6929669 6.09638118,13.2516854 C5.69238118,14.511067 6.61238118,15.5368943 7.85038118,15.4785057 C8.37638118,15.4523315 8.72538118,15.2620652 9.05638118,14.6540184 C9.24838118,14.3046935 11.0463812,9.5762239 11.1803812,9.34669631 C11.2783812,9.18461762 11.6023812,8.96817714 11.8753812,9.10710173 C12.1503812,9.25005312 12.2063812,9.5440095 12.1653812,9.82185869 C12.0973812,10.2728603 10.8313812,13.1580623 10.7803812,13.4832264 C10.6993812,14.037918 10.9593812,14.3459682 11.5343812,14.3761692 C11.9263812,14.3963032 12.3183812,14.2573786 12.6263812,13.6664458 C12.8013812,13.3382616 14.8003812,9.30441492 14.9773812,9.03461933 C15.1723812,8.73965625 15.3293812,8.64301306 15.5283812,8.65308005 C15.6833812,8.66012695 15.9283812,8.70140165 15.8673812,9.16448363 C15.8063812,9.619512 14.1953812,12.5771964 14.0293812,13.3030271 C13.8013812,14.2734858 14.3303812,15.2530049 15.2003812,15.6828658 C15.7563812,15.9576948 18.1853812,16.4258103 17.9883812,15.165422"></path>
</svg>
